<?xml version="1.0" standalone="no"?>
<!DOCTYPE svg PUBLIC "-//W3C//DTD SVG 20010904//EN"
 "http://www.w3.org/TR/2001/REC-SVG-20010904/DTD/svg10.dtd">
<svg version="1.0" xmlns="http://www.w3.org/2000/svg"
 width="700.000000pt" height="700.000000pt" viewBox="0 0 700.000000 700.000000"
 preserveAspectRatio="xMidYMid meet">
<metadata>
Created by potrace 1.11, written by Peter Selinger 2001-2013
</metadata>
<g transform="translate(0.000000,700.000000) scale(0.100000,-0.100000)"
fill="#000000" stroke="none">
<path d="M0 3500 l0 -3500 3500 0 3500 0 0 3500 0 3500 -3500 0 -3500 0 0
-3500z m1620 1479 c78 -17 139 -63 175 -133 l30 -60 0 -246 0 -246 -30 -60
c-36 -70 -97 -116 -175 -133 -31 -7 -178 -11 -370 -11 l-320 0 0 450 0 450
320 0 c192 0 339 -4 370 -11z m530 -439 l0 -450 -95 0 -95 0 0 450 0 450 95 0
95 0 0 -450z m1030 355 l0 -95 -352 -2 -353 -3 -3 -77 -3 -78 326 0 325 0 0
-95 0 -95 -322 -2 -323 -3 0 -80 0 -80 353 -3 352 -2 0 -95 0 -95 -450 0 -450
0 0 450 0 450 450 0 450 0 0 -95z m917 68 c69 -37 113 -113 113 -194 l0 -39
-94 0 c-92 0 -94 0 -100 25 -4 15 -18 30 -32 35 -14 6 -117 10 -229 10 -185 0
-205 -2 -226 -19 -19 -15 -24 -29 -24 -66 0 -75 2 -75 274 -75 130 0 252 -5
272 -10 61 -17 102 -52 132 -109 24 -49 27 -65 27 -156 0 -91 -3 -107 -27
-156 -30 -57 -71 -92 -132 -109 -20 -5 -149 -10 -287 -10 -286 0 -331 8 -389
65 -35 36 -65 112 -65 167 l0 28 95 0 c92 0 96 -1 105 -24 16 -44 37 -47 266
-44 244 3 244 3 244 83 0 81 6 79 -292 85 -145 3 -272 9 -283 14 -42 19 -86
59 -108 99 -19 37 -22 57 -22 157 0 107 2 118 27 161 15 25 40 54 55 64 61 40
97 44 383 42 264 -2 277 -3 317 -24z m1143 -68 l0 -95 -352 -2 -353 -3 -3 -77
-3 -78 326 0 325 0 0 -95 0 -95 -322 -2 -323 -3 0 -80 0 -80 353 -3 352 -2 0
-95 0 -95 -450 0 -450 0 0 450 0 450 450 0 450 0 0 -95z m322 -257 l3 -353
353 -3 352 -2 0 -95 0 -95 -450 0 -450 0 0 450 0 450 95 0 95 0 2 -352z
m-2219 -1142 c141 -244 266 -460 278 -480 l21 -36 -114 0 -113 0 -35 63 -36
62 -261 3 -262 2 -36 -65 -37 -65 -113 0 -114 0 117 203 c64 111 189 327 277
480 88 152 163 277 166 277 4 0 122 -200 262 -444z m-843 56 c0 -361 -4 -393
-59 -469 -19 -26 -50 -51 -88 -69 -58 -29 -60 -29 -276 -32 -198 -3 -224 -2
-286 17 -92 28 -143 78 -171 168 -11 36 -20 81 -20 99 l0 35 97 -3 97 -3 7
-35 c10 -45 48 -77 103 -85 69 -11 317 -1 347 14 53 26 54 31 57 374 l3 317
95 0 94 0 0 -328z m1850 317 c116 -25 196 -119 207 -247 l6 -62 -96 0 -96 0
-6 34 c-15 79 -63 96 -260 95 -156 0 -198 -10 -229 -52 -19 -26 -21 -41 -21
-207 0 -166 2 -181 21 -207 31 -42 73 -52 229 -52 197 -1 245 16 260 95 l6 34
96 0 96 0 -6 -62 c-11 -128 -91 -222 -207 -247 -28 -6 -138 -11 -244 -11 -235
0 -298 14 -365 81 -67 68 -81 130 -81 369 0 239 14 301 81 369 67 67 124 80
361 80 108 1 220 -4 248 -10z m540 -164 l0 -175 113 0 112 0 175 175 175 175
136 0 137 0 -224 -222 -225 -222 228 -228 228 -228 -140 0 -140 0 -180 180
-180 180 -105 -2 -105 -3 -3 -177 -2 -178 -95 0 -95 0 0 450 0 450 95 0 95 0
0 -175z m683 -1319 c141 -244 266 -460 278 -480 l21 -36 -114 0 -113 0 -35 63
-36 62 -261 3 -262 2 -36 -65 -37 -65 -113 0 -114 0 117 203 c64 111 189 327
277 480 88 152 163 277 166 277 4 0 122 -200 262 -444z m-3838 224 l159 -161
154 161 154 160 69 0 69 0 0 -450 0 -450 -95 0 -95 0 0 282 0 283 -130 -130
-130 -130 -123 123 c-67 67 -126 122 -130 122 -4 0 -7 -124 -7 -275 l0 -275
-95 0 -95 0 0 450 0 450 68 0 68 0 159 -160z m1635 65 l0 -95 -352 -2 -353 -3
-3 -77 -3 -78 326 0 325 0 0 -95 0 -95 -322 -2 -323 -3 0 -80 0 -80 353 -3
352 -2 0 -95 0 -95 -450 0 -450 0 0 450 0 450 450 0 450 0 0 -95z m820 84 c78
-17 139 -63 175 -133 l30 -60 0 -246 0 -246 -30 -60 c-36 -70 -97 -116 -175
-133 -31 -7 -178 -11 -370 -11 l-320 0 0 450 0 450 320 0 c192 0 339 -4 370
-11z m530 -439 l0 -450 -95 0 -95 0 0 450 0 450 95 0 95 0 0 -450z"/>
<path d="M1125 4788 c-3 -7 -4 -124 -3 -258 l3 -245 210 0 c228 0 261 6 286
52 20 37 20 369 0 405 -25 47 -50 52 -279 56 -170 3 -213 1 -217 -10z"/>
<path d="M3008 3432 c-38 -65 -68 -121 -68 -125 0 -4 63 -7 140 -7 86 0 140 4
140 10 0 13 -131 240 -139 240 -3 0 -36 -53 -73 -118z"/>
<path d="M5238 2322 c-38 -65 -68 -121 -68 -125 0 -4 63 -7 140 -7 86 0 140 4
140 10 0 13 -131 240 -139 240 -3 0 -36 -53 -73 -118z"/>
<path d="M3695 2568 c-3 -7 -4 -124 -3 -258 l3 -245 210 0 c228 0 261 6 286
52 20 37 20 369 0 405 -25 47 -50 52 -279 56 -170 3 -213 1 -217 -10z"/>
</g>
</svg>
